<svg xmlns="http://www.w3.org/2000/svg" width="430" height="185" viewBox="0 0 430 185" role="img" aria-label="Interactive Pet Marketplace">
  <title>Interactive Pet Marketplace</title>

  <ellipse cx="68" cy="108" rx="26" ry="22" fill="none" stroke="#8B5E3C" stroke-width="1.1" opacity="0.5"  transform="scale(1.18) translate(-10 -15)"/>
  <ellipse cx="68" cy="108" rx="26" ry="22" fill="none" stroke="#8B5E3C" stroke-width="0.8" opacity="0.28" transform="scale(1.38) translate(-22 -31)"/>

  <ellipse cx="57" cy="111" rx="13" ry="13" fill="#8B5E3C"/>
  <ellipse cx="79" cy="111" rx="13" ry="13" fill="#8B5E3C"/>
  <ellipse cx="68" cy="103" rx="13" ry="13" fill="#8B5E3C"/>
  <path d="M45 111 L91 111 L91 114 Q91 129 68 129 Q45 129 45 114 Z" fill="#8B5E3C"/>

  <ellipse cx="48" cy="80" rx="4.5" ry="5.5" fill="#8B5E3C"/>
  <ellipse cx="60" cy="73" rx="5"   ry="6"   fill="#8B5E3C"/>
  <ellipse cx="74" cy="73" rx="5"   ry="6"   fill="#8B5E3C"/>
  <ellipse cx="87" cy="80" rx="4.5" ry="5.5" fill="#8B5E3C"/>

  <text x="122" y="78"  font-family="system-ui, -apple-system, sans-serif" font-size="26" font-weight="500" font-style="italic" fill="#8B5E3C">Interactive</text>
  <text x="122" y="110" font-family="system-ui, -apple-system, sans-serif" font-size="26" font-weight="500" fill="#1A3A5C">Pet Marketplace</text>
  <line x1="122" y1="122" x2="415" y2="122" stroke="#8B5E3C" stroke-width="0.75" opacity="0.35"/>
  <text x="122" y="139" font-family="system-ui, -apple-system, sans-serif" font-size="11" fill="#888780" letter-spacing="2">COMPANION PETS FOR EVERY FAMILY</text>
</svg>
