<svg xmlns="http://www.w3.org/2000/svg" viewBox="0 0 600 200" role="img" aria-label="Interactive Pet Marketplace">
  <title>Interactive Pet Marketplace</title>
  <!-- Mark on the left -->
  <g transform="translate(20, 12)">
    <path d="M100 175 C 100 175, 20 130, 20 65 C 20 35, 45 15, 70 15 C 85 15, 95 22, 100 35 C 105 22, 115 15, 130 15 C 155 15, 180 35, 180 65 C 180 130, 100 175, 100 175 Z" fill="#ba7517"/>
    <ellipse cx="100" cy="115" rx="28" ry="24" fill="#2a6fb5"/>
    <ellipse cx="68" cy="75" rx="12" ry="16" fill="#2a6fb5"/>
    <ellipse cx="132" cy="75" rx="12" ry="16" fill="#2a6fb5"/>
    <ellipse cx="48" cy="100" rx="10" ry="13" fill="#2a6fb5" transform="rotate(-25 48 100)"/>
    <ellipse cx="152" cy="100" rx="10" ry="13" fill="#2a6fb5" transform="rotate(25 152 100)"/>
  </g>
  <!-- Wordmark -->
  <text x="240" y="92" font-family="system-ui, -apple-system, BlinkMacSystemFont, 'Segoe UI', sans-serif" font-size="42" font-weight="700" fill="#ba7517">Interactive Pet</text>
  <text x="240" y="142" font-family="system-ui, -apple-system, BlinkMacSystemFont, 'Segoe UI', sans-serif" font-size="42" font-weight="700" fill="#2a6fb5">Marketplace</text>
</svg>
