<svg xmlns="http://www.w3.org/2000/svg" viewBox="0 0 200 200" role="img" aria-label="Interactive Pet Marketplace">
  <title>Interactive Pet Marketplace</title>
  <!-- Heart in brand orange (#ba7517) -->
  <path d="M100 175 C 100 175, 20 130, 20 65 C 20 35, 45 15, 70 15 C 85 15, 95 22, 100 35 C 105 22, 115 15, 130 15 C 155 15, 180 35, 180 65 C 180 130, 100 175, 100 175 Z" fill="#ba7517"/>
  <!-- Paw in trust blue (#2a6fb5) -->
  <!-- Main pad -->
  <ellipse cx="100" cy="115" rx="28" ry="24" fill="#2a6fb5"/>
  <!-- Top inner toes -->
  <ellipse cx="68" cy="75" rx="12" ry="16" fill="#2a6fb5"/>
  <ellipse cx="132" cy="75" rx="12" ry="16" fill="#2a6fb5"/>
  <!-- Outer toes, slightly rotated -->
  <ellipse cx="48" cy="100" rx="10" ry="13" fill="#2a6fb5" transform="rotate(-25 48 100)"/>
  <ellipse cx="152" cy="100" rx="10" ry="13" fill="#2a6fb5" transform="rotate(25 152 100)"/>
</svg>
